<?xml version="1.0" standalone="no"?>
<!DOCTYPE svg PUBLIC "-//W3C//DTD SVG 20010904//EN"
 "http://www.w3.org/TR/2001/REC-SVG-20010904/DTD/svg10.dtd">
<svg version="1.0" xmlns="http://www.w3.org/2000/svg"
 width="2801.000000pt" height="232.000000pt" viewBox="0 0 2801.000000 232.000000"
 preserveAspectRatio="xMidYMid meet">
<metadata>
Created by potrace 1.14, written by Peter Selinger 2001-2017
</metadata>
<g transform="translate(0.000000,232.000000) scale(0.100000,-0.100000)"
fill="#000000" stroke="none">
<path d="M750 2304 c-268 -35 -485 -173 -585 -373 -44 -89 -56 -140 -62 -267
-12 -269 74 -437 287 -557 85 -48 256 -107 520 -180 210 -59 308 -105 346
-162 38 -59 35 -158 -8 -218 -12 -17 -49 -42 -87 -60 -58 -27 -78 -31 -176
-35 -217 -8 -420 63 -629 221 l-60 45 -143 -172 c-78 -94 -143 -173 -143 -176
0 -11 171 -132 246 -175 289 -165 693 -222 998 -141 330 88 516 322 516 651 0
185 -43 300 -154 411 -111 111 -253 182 -498 250 -465 128 -529 164 -531 301
-1 138 99 208 293 206 156 -2 317 -57 498 -170 40 -25 74 -44 76 -42 47 59
246 362 241 369 -11 18 -147 106 -220 142 -170 86 -347 128 -555 133 -74 2
-151 1 -170 -1z"/>
<path d="M11660 2304 c-429 -82 -743 -354 -880 -762 -91 -272 -77 -604 38
-870 100 -231 288 -434 502 -542 178 -89 355 -126 569 -117 291 12 527 114
732 317 452 446 452 1224 0 1670 -142 141 -265 212 -477 276 -81 25 -106 27
-274 30 -102 1 -196 0 -210 -2z m396 -164 c237 -61 431 -199 564 -401 277
-422 203 -1036 -163 -1351 -122 -105 -213 -154 -374 -200 -67 -20 -101 -23
-238 -23 -173 0 -215 7 -362 64 -210 82 -410 281 -506 506 -140 326 -106 736
84 1016 187 278 491 430 824 412 54 -3 132 -13 171 -23z"/>
<path d="M2180 1165 l0 -1115 245 0 245 0 0 336 0 336 126 134 c70 74 130 134
133 134 4 0 161 -211 350 -470 l342 -470 295 0 294 0 -68 93 c-38 50 -249 336
-470 635 -221 299 -402 547 -402 552 0 7 586 624 839 883 l65 67 -296 0 -297
0 -447 -482 c-246 -266 -451 -484 -456 -486 -4 -2 -8 215 -8 482 l0 486 -245
0 -245 0 0 -1115z"/>
<path d="M4500 1165 l0 -1115 245 0 245 0 0 1115 0 1115 -245 0 -245 0 0
-1115z"/>
<path d="M5520 1165 l0 -1115 245 0 245 0 0 701 c0 385 4 698 8 695 5 -3 247
-318 538 -700 l529 -696 213 0 212 0 0 1115 0 1115 -245 0 -245 0 -2 -684 -3
-685 -520 684 -520 685 -227 0 -228 0 0 -1115z"/>
<path d="M8140 1165 l0 -1115 80 0 80 0 0 956 c0 728 3 955 12 952 6 -2 204
-285 440 -629 236 -343 433 -625 437 -627 4 -1 200 278 436 620 235 343 434
630 441 638 12 12 14 -128 14 -948 l0 -962 85 0 85 0 0 1115 0 1115 -79 0 -79
0 -442 -652 c-244 -359 -446 -657 -450 -661 -3 -4 -208 290 -455 653 l-448
660 -79 0 -78 0 0 -1115z"/>
<path d="M13430 1165 l0 -1115 438 0 c458 0 533 5 682 48 239 70 441 203 582
386 242 313 296 750 138 1128 -98 237 -331 465 -576 565 -112 46 -251 80 -375
93 -56 5 -278 10 -495 10 l-394 0 0 -1115z m690 952 c252 -4 270 -5 360 -31
361 -102 604 -354 686 -711 22 -96 25 -318 6 -410 -45 -207 -130 -365 -266
-493 -116 -108 -222 -171 -364 -216 -158 -50 -226 -56 -598 -56 l-344 0 0 963
0 962 127 -2 c71 -2 247 -4 393 -6z"/>
<path d="M15890 1165 l0 -1115 800 0 800 0 0 75 0 75 -717 0 -718 0 2 447 3
448 635 0 635 0 0 78 0 77 -637 0 -638 0 2 435 3 436 707 2 708 2 3 78 3 77
-796 0 -795 0 0 -1115z"/>
<path d="M17940 1165 l0 -1115 80 0 80 0 0 460 0 460 368 0 367 0 353 -460
353 -460 105 0 105 0 -60 77 c-33 43 -197 256 -365 473 l-305 395 88 21 c177
44 300 106 397 201 52 51 117 161 138 233 42 144 29 316 -33 445 -49 102 -80
142 -161 206 -111 89 -257 145 -440 169 -41 5 -299 10 -572 10 l-498 0 0
-1115z m1178 932 c34 -9 92 -32 130 -51 173 -88 254 -221 254 -417 0 -237
-145 -407 -411 -482 -71 -20 -103 -21 -533 -25 l-458 -3 0 499 c0 274 2 501 4
503 2 2 217 1 478 -2 398 -4 483 -8 536 -22z"/>
<path d="M20210 1165 l0 -1115 78 0 77 0 -3 985 c-1 542 1 985 5 985 5 -1 359
-444 787 -985 l780 -985 63 0 63 0 0 1115 0 1115 -80 0 -80 0 0 -967 c0 -850
-2 -966 -15 -953 -8 8 -353 443 -768 965 l-753 950 -77 3 -77 3 0 -1116z"/>
<path d="M22710 1165 l0 -1115 800 0 800 0 0 75 0 75 -720 0 -720 0 2 447 3
448 638 0 637 0 0 78 0 77 -640 0 -640 0 2 435 3 436 710 2 710 2 3 78 3 77
-796 0 -795 0 0 -1115z"/>
<path d="M25600 1520 l0 -280 -280 0 -280 0 0 -80 0 -80 280 0 280 0 0 -280 0
-280 80 0 80 0 0 280 0 280 280 0 280 0 0 80 0 80 -280 0 -280 0 0 280 0 280
-80 0 -80 0 0 -280z"/>
<path d="M27290 1520 l0 -280 -280 0 -280 0 0 -80 0 -80 280 0 280 0 0 -280 0
-280 81 0 80 0 -3 280 -3 280 283 0 282 0 0 80 0 80 -282 0 -283 0 3 280 3
280 -80 0 -81 0 0 -280z"/>
</g>
</svg>
