<?xml version="1.0" encoding="utf-8"?>
<!-- Svg Vector Icons : http://www.onlinewebfonts.com/icon -->
<!DOCTYPE svg PUBLIC "-//W3C//DTD SVG 1.1//EN" "http://www.w3.org/Graphics/SVG/1.1/DTD/svg11.dtd">
<svg version="1.1" xmlns="http://www.w3.org/2000/svg" xmlns:xlink="http://www.w3.org/1999/xlink" x="0px" y="0px" viewBox="0 0 1000 1000" enable-background="new 0 0 1000 1000" xml:space="preserve">
<metadata> Svg Vector Icons : http://www.onlinewebfonts.com/icon </metadata>
<g stroke="white" fill="white"><path d="M220.6,734.7c22.3-0.1,44.5-5.3,60-10c5.9-42.6,73.6-527.9,84.5-605.6c-57.8,0-170.3,0-170.3,0s-85.2,0-137.5,0c10.8,77.5,77.8,558.3,84.2,603.9C161.8,728.2,192.3,734.3,220.6,734.7z"/><path d="M220.3,775.7c-25.9,0-52.3-4.3-73.4-9c0,34.4,0,55,0,73.3c15.6,10.3,38.5,22.3,58.7,22.3c23.6,0,51-13,69.4-24.2c0-18.2,0-37.2,0.1-69.4C259,772.6,240,775.7,220.3,775.7z"/><path d="M412.2,78c0,0-111.7,0-217.5,0C99.9,78,10,78,10,78l94.3,676.7v108.1c0,0,49.9,40.4,101.4,40.4c55,0,112.1-40.4,112.1-40.4V754.8L412.2,78z M194.7,119.1c0,0,112.5,0,170.3,0c-10.9,77.7-78.5,563-84.5,605.6c-15.5,4.6-37.7,9.8-60,10c-28.3-0.4-58.7-6.4-79.2-11.6c-6.4-45.6-73.4-526.4-84.2-603.9C109.5,119.1,194.7,119.1,194.7,119.1z M205.7,862.3c-20.2,0-43.2-12-58.7-22.3c0-18.3,0-38.9,0-73.3c21.1,4.7,47.5,9,73.4,9c19.6,0,38.7-3.2,54.9-7c-0.1,32.2-0.1,51.2-0.1,69.4C256.6,849.2,229.3,862.3,205.7,862.3z"/><path d="M409.2,592.9v198.9c3.5,49.8,126,89.9,271.7,89.9s268.3-40.1,271.9-89.9V593.2v-0.1c-51.9,41.2-153.4,69.6-271.8,69.6C562.6,662.8,461,634.2,409.2,592.9z M783.1,715.7c10.5,0,19,8.4,19,18.9c0,8.7-5.9,15.5-14,17.7l0.3,0.6c0,0-109.6,33.8-229.8,0l0.1-0.2c-8.6-1.8-15.3-9-15.3-18.1c0-10.5,8.6-18.9,18.9-18.9c3,0,5.8,0.8,8.2,1.9c11.9,3.5,100.4,26.2,204,0.5C777.1,716.7,780,715.7,783.1,715.7z"/><path d="M413.1,530.5c49.7,0,89.9,13.8,89.9,30.9c0,17.1-40.3,30.9-89.9,30.9V530.5z"/><path d="M570.5,717.7c-2.4-1.2-5.1-1.9-8.2-1.9c-10.3,0-18.9,8.4-18.9,18.9c0,9,6.7,16.3,15.3,18.1l-0.1,0.2c120.1,33.8,229.8,0,229.8,0l-0.3-0.6c8-2.3,14-9.1,14-17.7c0-10.5-8.5-18.9-19-18.9c-3.2,0-6,1-8.7,2.4C670.9,743.8,582.4,721.1,570.5,717.7z"/><path d="M989.9,791.9V530.3l-0.4,0.6c-2-71.2-139.1-128.7-308.5-128.7c-170.4,0-308.6,58.3-308.6,130.2c0,0.4,0.2,0.7,0.2,1.1l0,0v258.2l-0.2,0C372.6,863.7,510.8,922,681.2,922c170.5,0,308.7-58.3,308.8-130.2L989.9,791.9L989.9,791.9z M680.9,438.4c148,0,267.8,41.2,267.8,92c0,50.9-119.8,92.2-267.8,92.2s-267.8-41.2-267.8-92.2C413.1,479.5,533,438.4,680.9,438.4z M952.8,593.2v198.6c-3.5,49.8-126.1,89.9-271.9,89.9s-268.2-40.1-271.7-89.9V592.9c51.8,41.3,153.4,69.9,271.9,69.9C799.4,662.8,900.9,634.4,952.8,593.2L952.8,593.2z"/></g>
</svg>