<?xml version="1.0" standalone="no"?>
<!DOCTYPE svg PUBLIC "-//W3C//DTD SVG 20010904//EN"
 "http://www.w3.org/TR/2001/REC-SVG-20010904/DTD/svg10.dtd">
<svg version="1.0" xmlns="http://www.w3.org/2000/svg"
 width="722.000000pt" height="60.000000pt" viewBox="0 0 722.000000 60.000000"
 preserveAspectRatio="xMidYMid meet">

<g transform="translate(0.000000,60.000000) scale(0.100000,-0.100000)"
fill="#000000" stroke="none">
<path d="M150 589 c-105 -32 -157 -135 -116 -233 19 -46 53 -69 138 -95 109
-32 142 -51 146 -83 8 -69 -117 -78 -211 -14 l-35 24 -24 -26 c-51 -57 -53
-61 -32 -78 76 -61 222 -89 311 -60 57 19 85 45 108 98 45 109 -10 192 -155
233 -126 36 -156 63 -120 108 25 31 93 29 159 -6 l50 -25 30 46 31 47 -23 17
c-54 42 -190 67 -257 47z"/>
<path d="M2934 582 c-166 -58 -240 -252 -159 -417 52 -106 151 -162 274 -153
78 6 131 31 182 85 64 66 74 96 74 208 0 91 -2 104 -27 147 -73 124 -210 176
-344 130z m167 -34 c51 -15 114 -70 141 -121 26 -52 35 -151 18 -203 -44 -136
-174 -203 -311 -162 -94 28 -162 130 -161 243 0 176 150 292 313 243z"/>
<path d="M550 305 l0 -285 65 0 65 0 0 88 c0 87 1 89 33 120 l33 32 88 -120
87 -120 76 0 75 0 -24 33 c-120 160 -208 284 -208 292 1 6 50 63 111 128 l110
117 -73 0 -73 0 -117 -122 -117 -123 -1 123 0 122 -65 0 -65 0 0 -285z"/>
<path d="M1150 305 l0 -285 60 0 60 0 0 285 0 285 -60 0 -60 0 0 -285z"/>
<path d="M1410 305 l0 -285 60 0 60 0 0 175 c0 96 3 175 8 175 4 -1 66 -78
137 -173 l130 -172 58 -3 57 -3 0 286 0 285 -65 0 -65 0 -2 -171 -3 -170 -130
170 -130 171 -57 0 -58 0 0 -285z"/>
<path d="M2080 306 c0 -278 1 -286 20 -286 19 0 20 8 22 245 l3 245 109 -160
c61 -88 112 -160 115 -160 3 0 56 72 116 161 l110 161 3 -246 c2 -238 3 -246
22 -246 19 0 20 8 20 285 0 357 6 352 -150 123 -61 -90 -115 -163 -120 -163
-5 0 -58 72 -118 160 -77 113 -115 161 -130 163 l-22 3 0 -285z"/>
<path d="M3440 306 l0 -286 125 0 c99 0 135 4 177 20 71 26 123 71 156 134 36
69 38 189 5 252 -35 66 -70 101 -131 131 -52 25 -68 28 -194 31 l-138 4 0
-286z m276 229 c103 -31 166 -118 166 -230 0 -105 -45 -177 -137 -221 -43 -20
-65 -24 -157 -24 l-108 0 0 245 0 245 93 0 c53 0 115 -6 143 -15z"/>
<path d="M4070 305 l0 -285 206 0 c190 0 205 1 202 17 -3 16 -21 18 -186 21
l-182 2 0 115 0 115 166 0 c152 0 165 1 162 18 -3 15 -20 17 -166 20 l-162 2
0 110 0 110 180 0 c173 0 180 1 180 20 0 19 -7 20 -200 20 l-200 0 0 -285z"/>
<path d="M4590 306 c0 -279 0 -286 20 -286 19 0 20 7 20 115 l0 115 98 0 97
-1 88 -114 c72 -94 92 -115 114 -115 19 0 23 3 16 12 -124 160 -172 227 -166
231 5 2 21 7 37 11 73 18 116 75 116 153 0 62 -27 106 -82 135 -38 20 -60 23
-200 26 l-158 4 0 -286z m312 234 c54 -15 88 -61 88 -117 0 -38 -5 -50 -33
-78 -43 -43 -90 -55 -219 -55 l-108 0 0 130 0 130 118 0 c64 0 134 -5 154 -10z"/>
<path d="M5170 305 c0 -278 1 -285 20 -285 19 0 20 8 22 251 l3 251 199 -251
c133 -169 204 -251 217 -251 18 0 19 12 19 285 0 277 -1 285 -20 285 -19 0
-20 -8 -22 -247 l-3 -248 -198 248 c-139 174 -203 247 -217 247 -20 0 -20 -7
-20 -285z"/>
<path d="M5810 305 l0 -285 205 0 c198 0 205 1 205 20 0 19 -7 20 -185 20
l-186 0 3 113 3 112 163 3 c154 2 162 4 162 22 0 19 -7 20 -165 20 l-165 0 0
110 0 110 185 0 c178 0 185 1 185 20 0 19 -7 20 -205 20 l-205 0 0 -285z"/>
<path d="M6590 400 l0 -70 -70 0 c-63 0 -70 -2 -70 -20 0 -18 7 -20 70 -20
l69 0 3 -72 c3 -65 5 -73 23 -73 18 0 20 8 23 73 l3 72 69 0 c63 0 70 2 70 20
0 18 -7 20 -70 20 l-70 0 0 70 c0 68 -1 70 -25 70 -24 0 -25 -2 -25 -70z"/>
<path d="M7030 400 l0 -70 -75 0 c-68 0 -75 -2 -75 -20 0 -18 7 -20 75 -20
l75 0 0 -76 c0 -66 2 -75 18 -72 14 3 18 16 20 76 l3 72 69 0 c63 0 70 2 70
20 0 18 -7 20 -70 20 l-70 0 0 70 c0 63 -2 70 -20 70 -18 0 -20 -7 -20 -70z"/>
</g>
</svg>
