<?xml version="1.0" standalone="no"?>
<!DOCTYPE svg PUBLIC "-//W3C//DTD SVG 20010904//EN"
 "http://www.w3.org/TR/2001/REC-SVG-20010904/DTD/svg10.dtd">
<svg version="1.0" xmlns="http://www.w3.org/2000/svg"
 width="4315.000000pt" height="827.000000pt" viewBox="0 0 4315.000000 827.000000"
 preserveAspectRatio="xMidYMid meet">

<g transform="translate(0.000000,827.000000) scale(0.100000,-0.100000)"
fill="#000000" stroke="none">
<path d="M38720 7770 l0 -500 -500 0 -500 0 0 -140 0 -140 498 -2 497 -3 3
-497 2 -498 140 0 140 0 0 500 0 500 495 0 495 0 0 140 0 140 -495 0 -495 0 0
500 0 500 -140 0 -140 0 0 -500z"/>
<path d="M41720 7770 l0 -500 -495 0 -495 0 0 -140 0 -140 495 0 495 0 0 -500
0 -500 141 0 141 0 -4 500 -3 500 503 0 502 0 0 140 0 140 -502 2 -502 3 3
498 3 497 -141 0 -141 0 0 -500z"/>
<path d="M1210 4064 c-242 -45 -436 -121 -610 -237 -89 -60 -251 -219 -303
-298 -50 -78 -110 -201 -135 -279 -42 -130 -61 -373 -43 -540 28 -257 105
-428 263 -582 182 -178 405 -278 1028 -459 541 -158 676 -218 751 -329 58 -86
64 -243 14 -346 -23 -47 -39 -63 -96 -100 -138 -90 -292 -122 -519 -111 -353
18 -639 130 -987 384 l-117 85 -21 -25 c-11 -14 -113 -138 -228 -275 l-207
-250 0 -55 0 -55 67 -50 c329 -242 622 -381 974 -460 219 -50 360 -65 589 -65
224 0 349 14 525 60 487 127 808 448 896 895 32 165 27 432 -11 584 -68 268
-286 504 -614 663 -139 67 -261 111 -504 182 -403 117 -515 152 -629 195 -179
68 -248 116 -290 201 -23 48 -27 69 -27 142 0 135 36 212 128 276 144 99 425
118 701 49 170 -43 344 -119 545 -239 58 -34 118 -69 134 -78 l30 -15 55 77
c71 98 287 428 335 509 20 35 34 67 31 72 -10 16 -157 116 -258 175 -247 144
-495 232 -792 281 -97 16 -613 29 -675 18z"/>
<path d="M20525 4041 c-380 -101 -683 -270 -935 -522 -314 -314 -518 -736
-581 -1199 -17 -120 -17 -436 -1 -557 48 -364 167 -676 356 -938 285 -396 653
-650 1103 -764 260 -66 612 -76 893 -25 390 70 717 243 1009 535 404 403 621
969 598 1559 -13 319 -78 584 -211 855 -110 226 -229 388 -415 568 -225 217
-418 332 -735 438 -211 71 -213 71 -611 75 l-360 4 -110 -29z m790 -249 c634
-136 1125 -620 1290 -1272 78 -309 79 -648 4 -955 -54 -218 -158 -452 -276
-615 -158 -220 -401 -426 -626 -530 -89 -41 -296 -110 -392 -131 -96 -21 -565
-18 -678 4 -92 19 -260 75 -367 124 -282 129 -583 417 -749 717 -210 380 -278
867 -186 1321 138 679 630 1190 1280 1330 155 33 157 34 395 30 163 -3 237 -9
305 -23z"/>
<path d="M3810 2050 l0 -1980 435 0 435 0 0 599 0 599 184 194 c101 106 204
212 228 236 l45 43 109 -143 c122 -159 468 -628 861 -1168 l258 -355 523 -3
523 -2 -22 32 c-13 18 -210 285 -438 593 -789 1066 -1197 1622 -1204 1643 -1
5 129 147 288 318 304 324 1277 1338 1295 1349 35 22 -27 25 -509 25 l-520 0
-388 -417 c-213 -230 -543 -584 -733 -787 -190 -203 -375 -401 -411 -440 -37
-39 -71 -67 -75 -63 -5 5 -10 391 -12 858 l-3 849 -435 0 -434 0 0 -1980z"/>
<path d="M7930 2050 l0 -1980 435 0 435 0 0 1980 0 1980 -435 0 -435 0 0
-1980z"/>
<path d="M9750 2050 l0 -1980 428 0 429 0 8 1163 c4 639 10 1195 14 1236 l6
74 136 -174 c163 -208 952 -1241 1419 -1856 l335 -442 378 -1 377 0 0 1980 0
1980 -435 0 -435 0 -1 -1037 c-1 -571 -4 -1117 -8 -1213 l-6 -175 -700 920
c-385 506 -799 1051 -920 1210 l-220 290 -403 3 -402 2 0 -1980z"/>
<path d="M14400 2050 l0 -1980 145 0 144 0 3 1680 c2 1135 6 1682 13 1689 13
13 139 -161 815 -1139 415 -599 721 -1038 745 -1068 6 -7 436 604 1031 1468
451 653 518 750 525 750 4 0 11 -8 15 -17 5 -10 10 -771 12 -1690 l3 -1673
149 0 150 0 0 1980 0 1980 -137 0 -138 -1 -354 -522 c-800 -1181 -1226 -1806
-1232 -1806 -15 -2 -492 684 -1267 1824 l-339 500 -142 3 -141 3 0 -1981z"/>
<path d="M23810 2050 l0 -1980 648 0 c943 0 1110 12 1383 100 499 159 876 451
1122 868 314 531 359 1209 119 1793 -158 386 -527 770 -925 963 -189 92 -434
166 -667 201 -128 19 -677 34 -1267 35 l-413 0 0 -1980z m1230 1690 c234 -5
452 -14 485 -20 170 -28 414 -118 577 -211 368 -211 615 -521 752 -946 86
-267 99 -684 30 -958 -77 -305 -206 -537 -414 -745 -214 -216 -387 -323 -676
-421 -260 -87 -358 -97 -1106 -106 l-578 -6 0 1711 0 1712 253 0 c138 -1 443
-5 677 -10z"/>
<path d="M28180 2050 l0 -1980 1420 0 1420 0 0 130 0 130 -1269 0 c-699 0
-1272 3 -1274 8 -3 4 -2 363 2 797 l6 790 1128 3 1127 2 0 135 0 135 -1137 0
-1136 0 6 248 c4 136 7 484 7 775 l0 527 1260 0 1260 0 0 73 c0 39 3 102 7
140 l6 67 -1417 0 -1416 0 0 -1980z"/>
<path d="M31830 2050 l0 -1980 140 0 140 0 0 815 0 815 657 -2 658 -3 622
-810 622 -810 187 -3 c150 -2 185 0 177 10 -83 103 -1283 1662 -1281 1664 2 1
67 18 146 38 406 102 663 259 820 501 59 91 127 234 146 310 28 113 40 276 27
391 -21 187 -64 316 -157 474 -147 251 -467 444 -868 525 -121 24 -156 27
-560 35 -237 5 -666 10 -953 10 l-523 0 0 -1980z m1825 1680 c214 -11 269 -21
401 -73 309 -124 488 -332 534 -619 16 -98 8 -321 -15 -403 -82 -300 -348
-527 -734 -626 -100 -26 -493 -38 -1208 -39 l-523 0 0 829 c0 455 3 856 7 891
l6 63 666 -7 c366 -4 756 -11 866 -16z"/>
<path d="M35860 2051 l0 -1981 138 0 137 0 -3 1527 c-1 841 1 1627 5 1748 l8
220 195 -240 c218 -269 1286 -1612 2070 -2603 l515 -651 113 -1 112 0 0 1980
0 1980 -140 0 -140 0 -1 -1412 c-1 -1481 -7 -1971 -24 -1987 -10 -9 -251 291
-1888 2353 -451 567 -820 1032 -820 1032 -1 1 -64 4 -139 8 l-138 7 0 -1980z"/>
<path d="M40310 2050 l0 -1980 1420 0 1420 0 0 130 0 130 -1280 0 -1280 0 0
373 c0 204 3 564 7 800 l6 427 1134 0 1133 0 0 135 0 135 -1140 0 -1140 0 0
353 c0 195 3 543 7 775 l6 422 1257 0 1257 0 7 38 c3 20 6 83 6 140 l0 102
-1410 0 -1410 0 0 -1980z"/>
</g>
</svg>
